# xmcd
#
# Track frame offsets: 
#        182
#        32792
#        51390
#        69320
#        92315
#        119295
#
# Disc length: 1816 seconds
#
# Revision: 6
# Processed by: cddbd v1.5.2PL0 Copyright (c) Steve Scherf et al.
# Submitted via: ExactAudioCopyFreeDBPlugin 1.0
#
DISCID=47071606
DTITLE=PAUL RODGERS - MUDDY WATER BLUES - A TRIBUTE TO MUDDY WATERS (L
DTITLE=IMITED EDITION 2-CD)
DYEAR=1993
DGENRE=Blues
TTITLE0=All Right Now
TTITLE1=Wishing Well
TTITLE2=Fire and Water
TTITLE3=Bad Company
TTITLE4=Feel Like Making Love
TTITLE5=Can't Get Enough
EXTD=YEAR: 1993
EXTT0=
EXTT1=
EXTT2=
EXTT3=
EXTT4=
EXTT5=
PLAYORDER=
